<mxfile host="app.diagrams.net" modified="2024-05-22T20:42:05.144Z" agent="Mozilla/5.0 (Macintosh; Intel Mac OS X 10_15_7) AppleWebKit/537.36 (KHTML, like Gecko) Chrome/124.0.0.0 Safari/537.36" version="24.4.6" etag="Dsk_EJmbrTznqkYjLX1a" type="github">
  <diagram name="PÃ¡gina-1" id="LId67AGltsFrIIPm3-5N">
    <mxGraphModel>
      <root>
        <mxCell id="0" />
        <mxCell id="1" parent="0" />
      </root>
    </mxGraphModel>
  </diagram>
</mxfile>
